<?xml version="1.0" encoding="utf-8"?>
<!-- Generator: Adobe Illustrator 25.2.0, SVG Export Plug-In . SVG Version: 6.00 Build 0)  -->
<svg version="1.1" xmlns="http://www.w3.org/2000/svg" xmlns:xlink="http://www.w3.org/1999/xlink" x="0px" y="0px"
	 viewBox="0 0 32.62 32.62" style="enable-background:new 0 0 32.62 32.62;" xml:space="preserve">
<style type="text/css">
	.st0{fill-rule:evenodd;clip-rule:evenodd;fill:none;}
</style>
<g id="ruler">
	<rect x="5.03" y="6.97" class="st0" width="22.56" height="25.65"/>
</g>
<g id="Layer_1">
	<path d="M8.47,9.74c0,1.54-1.24,2.79-2.77,2.79s-2.77-1.25-2.77-2.79c0-1.54,1.24-2.79,2.77-2.79S8.47,8.2,8.47,9.74z M8.49,14.77
		H2.91v17.87h5.58V14.77z M17.41,14.77h-5.55v17.87h5.55v-9.38c0-5.21,6.73-5.64,6.73,0v9.38h5.57V21.32c0-8.8-9.96-8.48-12.3-4.15
		C17.41,17.18,17.41,14.77,17.41,14.77z"/>
</g>
</svg>
