<?xml version="1.0" encoding="utf-8"?>
<!-- Generator: Adobe Illustrator 25.2.0, SVG Export Plug-In . SVG Version: 6.00 Build 0)  -->
<svg version="1.1" xmlns="http://www.w3.org/2000/svg" xmlns:xlink="http://www.w3.org/1999/xlink" x="0px" y="0px"
	 viewBox="0 0 189.43 279.29" style="enable-background:new 0 0 189.43 279.29;" xml:space="preserve">
<style type="text/css">
	.st0{filter:url(#Adobe_OpacityMaskFilter);}
	.st1{fill:#FFFFFF;stroke:#000000;stroke-miterlimit:10;}
	.st2{mask:url(#SVGID_1_);stroke:#000000;stroke-miterlimit:10;}
	.st3{fill:none;stroke:#000000;stroke-width:15;stroke-miterlimit:10;}
</style>
<g id="main">
	<defs>
		<filter id="Adobe_OpacityMaskFilter" filterUnits="userSpaceOnUse" x="2.02" y="1.14" width="186.08" height="247.92">
			
				<feColorMatrix  type="matrix" values="-1 0 0 0 1  0 -1 0 0 1  0 0 -1 0 1  0 0 0 1 0" color-interpolation-filters="sRGB" result="source"/>
			<feFlood  style="flood-color:white;flood-opacity:1" result="back"/>
			<feBlend  in="source" in2="back" mode="normal"/>
		</filter>
	</defs>
	<mask maskUnits="userSpaceOnUse" x="2.02" y="1.14" width="186.08" height="247.92" id="SVGID_1_">
		<g class="st0">
			<circle class="st1" cx="95.06" cy="97.27" r="31.52"/>
		</g>
	</mask>
	<path class="st2" d="M93.88,248.32c-2.81-3.6-11.1-13.82-19.26-24.58C60.73,205.38,63,210.87,39.8,177.03
		c-10.1-14.72-18-27.61-25.4-42.2c-6.95-13.7-9.75-21.59-11.06-30.73C1.61,92.05,3.06,81.97,3.74,77.46
		c0.73-4.83,1.91-12.29,5.74-21.31c1.16-2.73,5.82-13.29,15.98-24.17c7.8-8.36,15.23-13.03,21.31-16.8
		c6.54-4.05,12.81-7.94,22.13-10.65C79.24,1.51,87.67,1.59,94.7,1.66c10.66,0.1,18.76,1.72,22.13,2.46
		c5.43,1.2,13.3,2.99,22.54,7.78c9.89,5.14,16.19,11.04,19.67,14.34c11.2,10.65,16.99,21.37,18.85,24.99
		c7.89,15.43,9.19,28.87,9.42,31.55c1.05,12.17-0.95,21.64-2.05,26.63c-1.74,7.94-4.08,13.73-6.15,18.85
		c-3.61,8.94-7.12,15.17-11.06,22.13c-1.62,2.86-7.44,13-16.8,26.22c-3.99,5.64-5,6.72-16.56,22.04
		c-6.57,8.71-8.25,11.46-12.94,17.25c-4.71,5.81-4.77,5.42-11.13,13.23c-3.46,4.25-7.07,8.37-10.53,12.61
		C95.51,247.37,94.63,249.28,93.88,248.32z"/>
	<ellipse class="st3" cx="95.41" cy="243.56" rx="69.06" ry="27.78"/>
</g>
<g id="clip">
</g>
</svg>
